<?xml version="1.0" encoding="UTF-8" standalone="no"?>
<!DOCTYPE svg PUBLIC "-//W3C//DTD SVG 1.1//EN"
 "http://www.w3.org/Graphics/SVG/1.1/DTD/svg11.dtd">
<!-- Generated by graphviz version 2.40.1 (20161225.0304)
 -->
<!-- Title: %3 Pages: 1 -->
<svg width="953pt" height="1725pt"
 viewBox="0.00 0.00 953.45 1725.00" xmlns="http://www.w3.org/2000/svg" xmlns:xlink="http://www.w3.org/1999/xlink">
<g id="graph0" class="graph" transform="scale(1 1) rotate(0) translate(4 1721)">
<title>%3</title>
<polygon fill="#ffffff" stroke="transparent" points="-4,4 -4,-1721 949.4504,-1721 949.4504,4 -4,4"/>
<text text-anchor="middle" x="472.7252" y="-7.8" font-family="Cantarell" font-size="14.00" fill="#000000">Biorepository Data Relationships</text>
<!-- subject -->
<g id="node1" class="node">
<title>subject</title>
<path fill="none" stroke="#50d0ff" stroke-width="2" d="M42,-1131C42,-1131 12,-1131 12,-1131 6,-1131 0,-1125 0,-1119 0,-1119 0,-1107 0,-1107 0,-1101 6,-1095 12,-1095 12,-1095 42,-1095 42,-1095 48,-1095 54,-1101 54,-1107 54,-1107 54,-1119 54,-1119 54,-1125 48,-1131 42,-1131"/>
<text text-anchor="middle" x="27" y="-1110.2" font-family="Cantarell" font-size="11.00" fill="#000000">subject</text>
</g>
<!-- __HAS__from_subject -->
<g id="node7" class="node">
<title>__HAS__from_subject</title>
<path fill="none" stroke="#dc112a" stroke-width="2" d="M135.9013,-1441C135.9013,-1441 126.5254,-1435 126.5254,-1435 121.8374,-1432 121.8374,-1426 126.5254,-1423 126.5254,-1423 135.9013,-1417 135.9013,-1417 140.5893,-1414 149.9653,-1414 154.6533,-1417 154.6533,-1417 164.0292,-1423 164.0292,-1423 168.7172,-1426 168.7172,-1432 164.0292,-1435 164.0292,-1435 154.6533,-1441 154.6533,-1441 149.9653,-1444 140.5893,-1444 135.9013,-1441"/>
<text text-anchor="middle" x="145.2773" y="-1426.2" font-family="Cantarell" font-size="11.00" fill="#000000">has</text>
</g>
<!-- subject&#45;&gt;__HAS__from_subject -->
<g id="edge25" class="edge">
<title>subject&#45;&gt;__HAS__from_subject</title>
<path fill="none" stroke="#c0c0c0" stroke-width="2" d="M33.8703,-1131.3554C54.0978,-1185.3968 113.4411,-1343.9436 136.2255,-1404.8165"/>
<polygon fill="#c0c0c0" stroke="#c0c0c0" stroke-width="2" points="133.0147,-1406.2228 139.7981,-1414.3613 139.5705,-1403.769 133.0147,-1406.2228"/>
</g>
<!-- __IS_PART_OF__from_subject -->
<g id="node9" class="node">
<title>__IS_PART_OF__from_subject</title>
<path fill="none" stroke="#dc112a" stroke-width="2" d="M133.8714,-1173.2709C133.8714,-1173.2709 101.6277,-1162.7291 101.6277,-1162.7291 95.9247,-1160.8645 95.9247,-1157.1355 101.6277,-1155.2709 101.6277,-1155.2709 133.8714,-1144.7291 133.8714,-1144.7291 139.5744,-1142.8645 150.9802,-1142.8645 156.6832,-1144.7291 156.6832,-1144.7291 188.9269,-1155.2709 188.9269,-1155.2709 194.6299,-1157.1355 194.6299,-1160.8645 188.9269,-1162.7291 188.9269,-1162.7291 156.6832,-1173.2709 156.6832,-1173.2709 150.9802,-1175.1355 139.5744,-1175.1355 133.8714,-1173.2709"/>
<text text-anchor="middle" x="145.2773" y="-1156.2" font-family="Cantarell" font-size="11.00" fill="#000000">is_part_of</text>
</g>
<!-- subject&#45;&gt;__IS_PART_OF__from_subject -->
<g id="edge21" class="edge">
<title>subject&#45;&gt;__IS_PART_OF__from_subject</title>
<path fill="none" stroke="#c0c0c0" stroke-width="2" d="M54.1352,-1123.5533C70.8234,-1130.0437 92.3771,-1138.4262 110.3343,-1145.4101"/>
<polygon fill="#c0c0c0" stroke="#c0c0c0" stroke-width="2" points="109.2982,-1148.7625 119.8868,-1149.1252 111.8355,-1142.2385 109.2982,-1148.7625"/>
</g>
<!-- __MAY_HAVE__from_subject -->
<g id="node11" class="node">
<title>__MAY_HAVE__from_subject</title>
<path fill="none" stroke="#dc112a" stroke-width="2" d="M133.8714,-1027.2709C133.8714,-1027.2709 101.6277,-1016.7291 101.6277,-1016.7291 95.9247,-1014.8645 95.9247,-1011.1355 101.6277,-1009.2709 101.6277,-1009.2709 133.8714,-998.7291 133.8714,-998.7291 139.5744,-996.8645 150.9802,-996.8645 156.6832,-998.7291 156.6832,-998.7291 188.9269,-1009.2709 188.9269,-1009.2709 194.6299,-1011.1355 194.6299,-1014.8645 188.9269,-1016.7291 188.9269,-1016.7291 156.6832,-1027.2709 156.6832,-1027.2709 150.9802,-1029.1355 139.5744,-1029.1355 133.8714,-1027.2709"/>
<text text-anchor="middle" x="145.2773" y="-1010.2" font-family="Cantarell" font-size="11.00" fill="#000000">may_have</text>
</g>
<!-- subject&#45;&gt;__MAY_HAVE__from_subject -->
<g id="edge36" class="edge">
<title>subject&#45;&gt;__MAY_HAVE__from_subject</title>
<path fill="none" stroke="#c0c0c0" stroke-width="2" d="M48.4191,-1094.8908C69.1976,-1077.3232 100.6381,-1050.7412 122.019,-1032.6642"/>
<polygon fill="#c0c0c0" stroke="#c0c0c0" stroke-width="2" points="124.301,-1035.3181 129.6778,-1026.189 119.7816,-1029.9726 124.301,-1035.3181"/>
</g>
<!-- __PROVIDES__from_subject -->
<g id="node12" class="node">
<title>__PROVIDES__from_subject</title>
<path fill="none" stroke="#dc112a" stroke-width="2" d="M134.0286,-945.8207C134.0286,-945.8207 108.0781,-936.1793 108.0781,-936.1793 102.4538,-934.0896 102.4538,-929.9104 108.0781,-927.8207 108.0781,-927.8207 134.0286,-918.1793 134.0286,-918.1793 139.6529,-916.0896 150.9017,-916.0896 156.526,-918.1793 156.526,-918.1793 182.4765,-927.8207 182.4765,-927.8207 188.1008,-929.9104 188.1008,-934.0896 182.4765,-936.1793 182.4765,-936.1793 156.526,-945.8207 156.526,-945.8207 150.9017,-947.9104 139.6529,-947.9104 134.0286,-945.8207"/>
<text text-anchor="middle" x="145.2773" y="-929.2" font-family="Cantarell" font-size="11.00" fill="#000000">provides</text>
</g>
<!-- subject&#45;&gt;__PROVIDES__from_subject -->
<g id="edge23" class="edge">
<title>subject&#45;&gt;__PROVIDES__from_subject</title>
<path fill="none" stroke="#c0c0c0" stroke-width="2" d="M33.8054,-1094.6822C43.8399,-1068.9901 64.2324,-1021.431 90,-986 99.1805,-973.3767 111.4335,-961.0739 122.0702,-951.4076"/>
<polygon fill="#c0c0c0" stroke="#c0c0c0" stroke-width="2" points="124.6349,-953.8121 129.8114,-944.568 120,-948.5663 124.6349,-953.8121"/>
</g>
<!-- __CONSISTS_OF__from_family -->
<g id="node2" class="node">
<title>__CONSISTS_OF__from_family</title>
<path fill="none" stroke="#dc112a" stroke-width="2" d="M453.2627,-1173.0097C453.2627,-1173.0097 424.8465,-1162.9903 424.8465,-1162.9903 419.188,-1160.9952 419.188,-1157.0048 424.8465,-1155.0097 424.8465,-1155.0097 453.2627,-1144.9903 453.2627,-1144.9903 458.9213,-1142.9952 470.2384,-1142.9952 475.8969,-1144.9903 475.8969,-1144.9903 504.3131,-1155.0097 504.3131,-1155.0097 509.9717,-1157.0048 509.9717,-1160.9952 504.3131,-1162.9903 504.3131,-1162.9903 475.8969,-1173.0097 475.8969,-1173.0097 470.2384,-1175.0048 458.9213,-1175.0048 453.2627,-1173.0097"/>
<text text-anchor="middle" x="464.5798" y="-1156.2" font-family="Cantarell" font-size="11.00" fill="#000000">group_of</text>
</g>
<!-- fam_member -->
<g id="node45" class="node">
<title>fam_member</title>
<path fill="none" stroke="#50d0ff" stroke-width="2" d="M638.105,-1177C638.105,-1177 582.105,-1177 582.105,-1177 576.105,-1177 570.105,-1171 570.105,-1165 570.105,-1165 570.105,-1153 570.105,-1153 570.105,-1147 576.105,-1141 582.105,-1141 582.105,-1141 638.105,-1141 638.105,-1141 644.105,-1141 650.105,-1147 650.105,-1153 650.105,-1153 650.105,-1165 650.105,-1165 650.105,-1171 644.105,-1177 638.105,-1177"/>
<text text-anchor="middle" x="610.105" y="-1156.2" font-family="Cantarell" font-size="11.00" fill="#000000">fam_member</text>
</g>
<!-- __CONSISTS_OF__from_family&#45;&gt;fam_member -->
<g id="edge40" class="edge">
<title>__CONSISTS_OF__from_family&#45;&gt;fam_member</title>
<path fill="none" stroke="#c0c0c0" stroke-width="2" d="M515.8866,-1159C530.1098,-1159 545.5344,-1159 559.7054,-1159"/>
<polygon fill="#c0c0c0" stroke="#c0c0c0" stroke-width="2" points="559.7675,-1162.5001 569.7674,-1159 559.7674,-1155.5001 559.7675,-1162.5001"/>
</g>
<!-- __HAS__from_fam_member -->
<g id="node3" class="node">
<title>__HAS__from_fam_member</title>
<path fill="none" stroke="#dc112a" stroke-width="2" d="M741.1517,-1179C741.1517,-1179 731.7758,-1173 731.7758,-1173 727.0878,-1170 727.0878,-1164 731.7758,-1161 731.7758,-1161 741.1517,-1155 741.1517,-1155 745.8397,-1152 755.2157,-1152 759.9037,-1155 759.9037,-1155 769.2796,-1161 769.2796,-1161 773.9676,-1164 773.9676,-1170 769.2796,-1173 769.2796,-1173 759.9037,-1179 759.9037,-1179 755.2157,-1182 745.8397,-1182 741.1517,-1179"/>
<text text-anchor="middle" x="750.5277" y="-1164.2" font-family="Cantarell" font-size="11.00" fill="#000000">has</text>
</g>
<!-- is_a_subject_status -->
<g id="node53" class="node">
<title>is_a_subject_status</title>
<path fill="none" stroke="#50d0ff" stroke-width="2" d="M932.4504,-1185C932.4504,-1185 845.4504,-1185 845.4504,-1185 839.4504,-1185 833.4504,-1179 833.4504,-1173 833.4504,-1173 833.4504,-1161 833.4504,-1161 833.4504,-1155 839.4504,-1149 845.4504,-1149 845.4504,-1149 932.4504,-1149 932.4504,-1149 938.4504,-1149 944.4504,-1155 944.4504,-1161 944.4504,-1161 944.4504,-1173 944.4504,-1173 944.4504,-1179 938.4504,-1185 932.4504,-1185"/>
<text text-anchor="middle" x="888.9504" y="-1164.2" font-family="Cantarell" font-size="11.00" fill="#000000">is_a_subject_status</text>
</g>
<!-- __HAS__from_fam_member&#45;&gt;is_a_subject_status -->
<g id="edge53" class="edge">
<title>__HAS__from_fam_member&#45;&gt;is_a_subject_status</title>
<path fill="none" stroke="#c0c0c0" stroke-width="2" d="M778.8736,-1167C791.7206,-1167 807.4943,-1167 823.0449,-1167"/>
<polygon fill="#c0c0c0" stroke="#c0c0c0" stroke-width="2" points="823.1987,-1170.5001 833.1987,-1167 823.1986,-1163.5001 823.1987,-1170.5001"/>
</g>
<!-- fam_gi_dx -->
<g id="node54" class="node">
<title>fam_gi_dx</title>
<path fill="none" stroke="#50d0ff" stroke-width="2" d="M909.9504,-1131C909.9504,-1131 867.9504,-1131 867.9504,-1131 861.9504,-1131 855.9504,-1125 855.9504,-1119 855.9504,-1119 855.9504,-1107 855.9504,-1107 855.9504,-1101 861.9504,-1095 867.9504,-1095 867.9504,-1095 909.9504,-1095 909.9504,-1095 915.9504,-1095 921.9504,-1101 921.9504,-1107 921.9504,-1107 921.9504,-1119 921.9504,-1119 921.9504,-1125 915.9504,-1131 909.9504,-1131"/>
<text text-anchor="middle" x="888.9504" y="-1110.2" font-family="Cantarell" font-size="11.00" fill="#000000">fam_gi_dx</text>
</g>
<!-- __HAS__from_fam_member&#45;&gt;fam_gi_dx -->
<g id="edge54" class="edge">
<title>__HAS__from_fam_member&#45;&gt;fam_gi_dx</title>
<path fill="none" stroke="#c0c0c0" stroke-width="2" d="M768.059,-1160.1609C787.6263,-1152.5275 819.9976,-1139.8991 846.3202,-1129.6304"/>
<polygon fill="#c0c0c0" stroke="#c0c0c0" stroke-width="2" points="847.6652,-1132.8627 855.7094,-1125.9676 845.1212,-1126.3413 847.6652,-1132.8627"/>
</g>
<!-- relation_to_proband -->
<g id="node55" class="node">
<title>relation_to_proband</title>
<path fill="none" stroke="#50d0ff" stroke-width="2" d="M933.4504,-1239C933.4504,-1239 844.4504,-1239 844.4504,-1239 838.4504,-1239 832.4504,-1233 832.4504,-1227 832.4504,-1227 832.4504,-1215 832.4504,-1215 832.4504,-1209 838.4504,-1203 844.4504,-1203 844.4504,-1203 933.4504,-1203 933.4504,-1203 939.4504,-1203 945.4504,-1209 945.4504,-1215 945.4504,-1215 945.4504,-1227 945.4504,-1227 945.4504,-1233 939.4504,-1239 933.4504,-1239"/>
<text text-anchor="middle" x="888.9504" y="-1218.2" font-family="Cantarell" font-size="11.00" fill="#000000">relation_to_proband</text>
</g>
<!-- __HAS__from_fam_member&#45;&gt;relation_to_proband -->
<g id="edge55" class="edge">
<title>__HAS__from_fam_member&#45;&gt;relation_to_proband</title>
<path fill="none" stroke="#c0c0c0" stroke-width="2" d="M768.059,-1173.8391C784.4915,-1180.2496 809.9542,-1190.1828 833.281,-1199.2829"/>
<polygon fill="#c0c0c0" stroke="#c0c0c0" stroke-width="2" points="832.1837,-1202.6116 842.772,-1202.9854 834.7278,-1196.0903 832.1837,-1202.6116"/>
</g>
<!-- __HAS__from_family -->
<g id="node4" class="node">
<title>__HAS__from_family</title>
<path fill="none" stroke="#dc112a" stroke-width="2" d="M455.2039,-1225C455.2039,-1225 445.8279,-1219 445.8279,-1219 441.1399,-1216 441.1399,-1210 445.8279,-1207 445.8279,-1207 455.2039,-1201 455.2039,-1201 459.8918,-1198 469.2678,-1198 473.9558,-1201 473.9558,-1201 483.3317,-1207 483.3317,-1207 488.0197,-1210 488.0197,-1216 483.3317,-1219 483.3317,-1219 473.9558,-1225 473.9558,-1225 469.2678,-1228 459.8918,-1228 455.2039,-1225"/>
<text text-anchor="middle" x="464.5798" y="-1210.2" font-family="Cantarell" font-size="11.00" fill="#000000">has</text>
</g>
<!-- veoibd_designation -->
<g id="node46" class="node">
<title>veoibd_designation</title>
<path fill="none" stroke="#50d0ff" stroke-width="2" d="M652.605,-1231C652.605,-1231 567.605,-1231 567.605,-1231 561.605,-1231 555.605,-1225 555.605,-1219 555.605,-1219 555.605,-1207 555.605,-1207 555.605,-1201 561.605,-1195 567.605,-1195 567.605,-1195 652.605,-1195 652.605,-1195 658.605,-1195 664.605,-1201 664.605,-1207 664.605,-1207 664.605,-1219 664.605,-1219 664.605,-1225 658.605,-1231 652.605,-1231"/>
<text text-anchor="middle" x="610.105" y="-1210.2" font-family="Cantarell" font-size="11.00" fill="#000000">veoibd_designation</text>
</g>
<!-- __HAS__from_family&#45;&gt;veoibd_designation -->
<g id="edge42" class="edge">
<title>__HAS__from_family&#45;&gt;veoibd_designation</title>
<path fill="none" stroke="#c0c0c0" stroke-width="2" d="M492.984,-1213C507.9892,-1213 527.0642,-1213 545.4414,-1213"/>
<polygon fill="#c0c0c0" stroke="#c0c0c0" stroke-width="2" points="545.5489,-1216.5001 555.5489,-1213 545.5489,-1209.5001 545.5489,-1216.5001"/>
</g>
<!-- __HAS__from_labs_info -->
<g id="node5" class="node">
<title>__HAS__from_labs_info</title>
<path fill="none" stroke="#dc112a" stroke-width="2" d="M741.1517,-269C741.1517,-269 731.7758,-263 731.7758,-263 727.0878,-260 727.0878,-254 731.7758,-251 731.7758,-251 741.1517,-245 741.1517,-245 745.8397,-242 755.2157,-242 759.9037,-245 759.9037,-245 769.2796,-251 769.2796,-251 773.9676,-254 773.9676,-260 769.2796,-263 769.2796,-263 759.9037,-269 759.9037,-269 755.2157,-272 745.8397,-272 741.1517,-269"/>
<text text-anchor="middle" x="750.5277" y="-254.2" font-family="Cantarell" font-size="11.00" fill="#000000">has</text>
</g>
<!-- labs_date -->
<g id="node14" class="node">
<title>labs_date</title>
<path fill="none" stroke="#50d0ff" stroke-width="2" d="M908.4504,-194C908.4504,-194 869.4504,-194 869.4504,-194 863.4504,-194 857.4504,-188 857.4504,-182 857.4504,-182 857.4504,-170 857.4504,-170 857.4504,-164 863.4504,-158 869.4504,-158 869.4504,-158 908.4504,-158 908.4504,-158 914.4504,-158 920.4504,-164 920.4504,-170 920.4504,-170 920.4504,-182 920.4504,-182 920.4504,-188 914.4504,-194 908.4504,-194"/>
<text text-anchor="middle" x="888.9504" y="-173.2" font-family="Cantarell" font-size="11.00" fill="#000000">labs_date</text>
</g>
<!-- __HAS__from_labs_info&#45;&gt;labs_date -->
<g id="edge2" class="edge">
<title>__HAS__from_labs_info&#45;&gt;labs_date</title>
<path fill="none" stroke="#c0c0c0" stroke-width="2" d="M763.7971,-247.4357C779.712,-236.1589 807.386,-217.1615 832.4504,-203 837.3605,-200.2258 842.6006,-197.4672 847.8354,-194.8319"/>
<polygon fill="#c0c0c0" stroke="#c0c0c0" stroke-width="2" points="849.7456,-197.7932 857.1799,-190.2446 846.6608,-191.5095 849.7456,-197.7932"/>
</g>
<!-- labs_kind -->
<g id="node15" class="node">
<title>labs_kind</title>
<path fill="none" stroke="#50d0ff" stroke-width="2" d="M907.9504,-356C907.9504,-356 869.9504,-356 869.9504,-356 863.9504,-356 857.9504,-350 857.9504,-344 857.9504,-344 857.9504,-332 857.9504,-332 857.9504,-326 863.9504,-320 869.9504,-320 869.9504,-320 907.9504,-320 907.9504,-320 913.9504,-320 919.9504,-326 919.9504,-332 919.9504,-332 919.9504,-344 919.9504,-344 919.9504,-350 913.9504,-356 907.9504,-356"/>
<text text-anchor="middle" x="888.9504" y="-335.2" font-family="Cantarell" font-size="11.00" fill="#000000">labs_kind</text>
</g>
<!-- __HAS__from_labs_info&#45;&gt;labs_kind -->
<g id="edge3" class="edge">
<title>__HAS__from_labs_info&#45;&gt;labs_kind</title>
<path fill="none" stroke="#c0c0c0" stroke-width="2" d="M763.7971,-266.5643C779.712,-277.8411 807.386,-296.8385 832.4504,-311 837.6045,-313.9121 843.1223,-316.8069 848.6158,-319.5601"/>
<polygon fill="#c0c0c0" stroke="#c0c0c0" stroke-width="2" points="847.2489,-322.7877 857.7697,-324.0378 850.3247,-316.4997 847.2489,-322.7877"/>
</g>
<!-- labs_value -->
<g id="node16" class="node">
<title>labs_value</title>
<path fill="none" stroke="#50d0ff" stroke-width="2" d="M910.9504,-302C910.9504,-302 866.9504,-302 866.9504,-302 860.9504,-302 854.9504,-296 854.9504,-290 854.9504,-290 854.9504,-278 854.9504,-278 854.9504,-272 860.9504,-266 866.9504,-266 866.9504,-266 910.9504,-266 910.9504,-266 916.9504,-266 922.9504,-272 922.9504,-278 922.9504,-278 922.9504,-290 922.9504,-290 922.9504,-296 916.9504,-302 910.9504,-302"/>
<text text-anchor="middle" x="888.9504" y="-281.2" font-family="Cantarell" font-size="11.00" fill="#000000">labs_value</text>
</g>
<!-- __HAS__from_labs_info&#45;&gt;labs_value -->
<g id="edge4" class="edge">
<title>__HAS__from_labs_info&#45;&gt;labs_value</title>
<path fill="none" stroke="#c0c0c0" stroke-width="2" d="M772.1562,-261.2188C791.5174,-264.9952 820.5071,-270.6498 844.7601,-275.3805"/>
<polygon fill="#c0c0c0" stroke="#c0c0c0" stroke-width="2" points="844.3372,-278.8639 854.8223,-277.3432 845.6774,-271.9934 844.3372,-278.8639"/>
</g>
<!-- labs_value_unit -->
<g id="node17" class="node">
<title>labs_value_unit</title>
<path fill="none" stroke="#50d0ff" stroke-width="2" d="M922.9504,-248C922.9504,-248 854.9504,-248 854.9504,-248 848.9504,-248 842.9504,-242 842.9504,-236 842.9504,-236 842.9504,-224 842.9504,-224 842.9504,-218 848.9504,-212 854.9504,-212 854.9504,-212 922.9504,-212 922.9504,-212 928.9504,-212 934.9504,-218 934.9504,-224 934.9504,-224 934.9504,-236 934.9504,-236 934.9504,-242 928.9504,-248 922.9504,-248"/>
<text text-anchor="middle" x="888.9504" y="-227.2" font-family="Cantarell" font-size="11.00" fill="#000000">labs_value_unit</text>
</g>
<!-- __HAS__from_labs_info&#45;&gt;labs_value_unit -->
<g id="edge5" class="edge">
<title>__HAS__from_labs_info&#45;&gt;labs_value_unit</title>
<path fill="none" stroke="#c0c0c0" stroke-width="2" d="M772.1562,-252.7813C788.4355,-249.6059 811.5219,-245.1028 832.8762,-240.9375"/>
<polygon fill="#c0c0c0" stroke="#c0c0c0" stroke-width="2" points="833.7127,-244.3404 842.8576,-238.9906 832.3725,-237.4699 833.7127,-244.3404"/>
</g>
<!-- __HAS__from_sample -->
<g id="node6" class="node">
<title>__HAS__from_sample</title>
<path fill="none" stroke="#dc112a" stroke-width="2" d="M455.2039,-431C455.2039,-431 445.8279,-425 445.8279,-425 441.1399,-422 441.1399,-416 445.8279,-413 445.8279,-413 455.2039,-407 455.2039,-407 459.8918,-404 469.2678,-404 473.9558,-407 473.9558,-407 483.3317,-413 483.3317,-413 488.0197,-416 488.0197,-422 483.3317,-425 483.3317,-425 473.9558,-431 473.9558,-431 469.2678,-434 459.8918,-434 455.2039,-431"/>
<text text-anchor="middle" x="464.5798" y="-416.2" font-family="Cantarell" font-size="11.00" fill="#000000">has</text>
</g>
<!-- labs_info -->
<g id="node13" class="node">
<title>labs_info</title>
<path fill="none" stroke="#50d0ff" stroke-width="2" d="M628.105,-275C628.105,-275 592.105,-275 592.105,-275 586.105,-275 580.105,-269 580.105,-263 580.105,-263 580.105,-251 580.105,-251 580.105,-245 586.105,-239 592.105,-239 592.105,-239 628.105,-239 628.105,-239 634.105,-239 640.105,-245 640.105,-251 640.105,-251 640.105,-263 640.105,-263 640.105,-269 634.105,-275 628.105,-275"/>
<text text-anchor="middle" x="610.105" y="-254.2" font-family="Cantarell" font-size="11.00" fill="#000000">labs_info</text>
</g>
<!-- __HAS__from_sample&#45;&gt;labs_info -->
<g id="edge13" class="edge">
<title>__HAS__from_sample&#45;&gt;labs_info</title>
<path fill="none" stroke="#c0c0c0" stroke-width="2" d="M470.5994,-404.4901C482.445,-377.4944 511.1884,-319.1139 551.605,-284 557.2362,-279.1077 563.9033,-274.932 570.6845,-271.4317"/>
<polygon fill="#c0c0c0" stroke="#c0c0c0" stroke-width="2" points="572.3673,-274.5077 579.9157,-267.0731 569.3786,-268.1778 572.3673,-274.5077"/>
</g>
<!-- crf -->
<g id="node19" class="node">
<title>crf</title>
<path fill="none" stroke="#50d0ff" stroke-width="2" d="M625.105,-221C625.105,-221 595.105,-221 595.105,-221 589.105,-221 583.105,-215 583.105,-209 583.105,-209 583.105,-197 583.105,-197 583.105,-191 589.105,-185 595.105,-185 595.105,-185 625.105,-185 625.105,-185 631.105,-185 637.105,-191 637.105,-197 637.105,-197 637.105,-209 637.105,-209 637.105,-215 631.105,-221 625.105,-221"/>
<text text-anchor="middle" x="610.105" y="-200.2" font-family="Cantarell" font-size="11.00" fill="#000000">crf</text>
</g>
<!-- __HAS__from_sample&#45;&gt;crf -->
<g id="edge7" class="edge">
<title>__HAS__from_sample&#45;&gt;crf</title>
<path fill="none" stroke="#c0c0c0" stroke-width="2" d="M467.9824,-402.8951C476.2707,-367.2841 500.6688,-280.9819 551.605,-230 557.7989,-223.8006 565.6805,-218.8669 573.6368,-215.0049"/>
<polygon fill="#c0c0c0" stroke="#c0c0c0" stroke-width="2" points="575.1519,-218.1625 582.9145,-210.9518 572.3496,-211.7479 575.1519,-218.1625"/>
</g>
<!-- sample_kind -->
<g id="node20" class="node">
<title>sample_kind</title>
<path fill="none" stroke="#50d0ff" stroke-width="2" d="M636.605,-167C636.605,-167 583.605,-167 583.605,-167 577.605,-167 571.605,-161 571.605,-155 571.605,-155 571.605,-143 571.605,-143 571.605,-137 577.605,-131 583.605,-131 583.605,-131 636.605,-131 636.605,-131 642.605,-131 648.605,-137 648.605,-143 648.605,-143 648.605,-155 648.605,-155 648.605,-161 642.605,-167 636.605,-167"/>
<text text-anchor="middle" x="610.105" y="-146.2" font-family="Cantarell" font-size="11.00" fill="#000000">sample_kind</text>
</g>
<!-- __HAS__from_sample&#45;&gt;sample_kind -->
<g id="edge8" class="edge">
<title>__HAS__from_sample&#45;&gt;sample_kind</title>
<path fill="none" stroke="#c0c0c0" stroke-width="2" d="M466.1809,-401.9786C471.0891,-358.8249 489.5853,-243.7672 551.605,-176 554.8334,-172.4724 558.615,-169.37 562.6749,-166.6492"/>
<polygon fill="#c0c0c0" stroke="#c0c0c0" stroke-width="2" points="564.4544,-169.6631 571.3112,-161.5864 560.9142,-163.6243 564.4544,-169.6631"/>
</g>
<!-- longitudinal_status -->
<g id="node21" class="node">
<title>longitudinal_status</title>
<path fill="none" stroke="#50d0ff" stroke-width="2" d="M651.605,-113C651.605,-113 568.605,-113 568.605,-113 562.605,-113 556.605,-107 556.605,-101 556.605,-101 556.605,-89 556.605,-89 556.605,-83 562.605,-77 568.605,-77 568.605,-77 651.605,-77 651.605,-77 657.605,-77 663.605,-83 663.605,-89 663.605,-89 663.605,-101 663.605,-101 663.605,-107 657.605,-113 651.605,-113"/>
<text text-anchor="middle" x="610.105" y="-92.2" font-family="Cantarell" font-size="11.00" fill="#000000">longitudinal_status</text>
</g>
<!-- __HAS__from_sample&#45;&gt;longitudinal_status -->
<g id="edge9" class="edge">
<title>__HAS__from_sample&#45;&gt;longitudinal_status</title>
<path fill="none" stroke="#c0c0c0" stroke-width="2" d="M467.5139,-402.7314C477.8067,-347.1704 513.7046,-165.9421 551.605,-122 552.2283,-121.2774 552.875,-120.5729 553.5429,-119.8862"/>
<polygon fill="#c0c0c0" stroke="#c0c0c0" stroke-width="2" points="556.0618,-122.3383 561.4062,-113.1902 551.5234,-117.0088 556.0618,-122.3383"/>
</g>
<!-- record_id -->
<g id="node22" class="node">
<title>record_id</title>
<path fill="none" stroke="#50d0ff" stroke-width="2" d="M629.105,-59C629.105,-59 591.105,-59 591.105,-59 585.105,-59 579.105,-53 579.105,-47 579.105,-47 579.105,-35 579.105,-35 579.105,-29 585.105,-23 591.105,-23 591.105,-23 629.105,-23 629.105,-23 635.105,-23 641.105,-29 641.105,-35 641.105,-35 641.105,-47 641.105,-47 641.105,-53 635.105,-59 629.105,-59"/>
<text text-anchor="middle" x="610.105" y="-38.2" font-family="Cantarell" font-size="11.00" fill="#000000">record_id</text>
</g>
<!-- __HAS__from_sample&#45;&gt;record_id -->
<g id="edge10" class="edge">
<title>__HAS__from_sample&#45;&gt;record_id</title>
<path fill="none" stroke="#c0c0c0" stroke-width="2" d="M466.8219,-402.0149C475.4061,-339.1885 507.9074,-120.8686 551.605,-68 556.4554,-62.1317 562.8617,-57.4753 569.6539,-53.8011"/>
<polygon fill="#c0c0c0" stroke="#c0c0c0" stroke-width="2" points="571.4896,-56.8054 579.0452,-49.3782 568.507,-50.4726 571.4896,-56.8054"/>
</g>
<!-- sample_number -->
<g id="node23" class="node">
<title>sample_number</title>
<path fill="none" stroke="#50d0ff" stroke-width="2" d="M645.105,-761C645.105,-761 575.105,-761 575.105,-761 569.105,-761 563.105,-755 563.105,-749 563.105,-749 563.105,-737 563.105,-737 563.105,-731 569.105,-725 575.105,-725 575.105,-725 645.105,-725 645.105,-725 651.105,-725 657.105,-731 657.105,-737 657.105,-737 657.105,-749 657.105,-749 657.105,-755 651.105,-761 645.105,-761"/>
<text text-anchor="middle" x="610.105" y="-740.2" font-family="Cantarell" font-size="11.00" fill="#000000">sample_number</text>
</g>
<!-- __HAS__from_sample&#45;&gt;sample_number -->
<g id="edge11" class="edge">
<title>__HAS__from_sample&#45;&gt;sample_number</title>
<path fill="none" stroke="#c0c0c0" stroke-width="2" d="M467.5139,-435.2686C477.8067,-490.8296 513.7046,-672.0579 551.605,-716 552.7351,-717.3103 553.9423,-718.5608 555.213,-719.7539"/>
<polygon fill="#c0c0c0" stroke="#c0c0c0" stroke-width="2" points="553.0757,-722.5259 563.0925,-725.9778 557.4146,-717.0328 553.0757,-722.5259"/>
</g>
<!-- label_on_sample -->
<g id="node24" class="node">
<title>label_on_sample</title>
<path fill="none" stroke="#50d0ff" stroke-width="2" d="M647.105,-707C647.105,-707 573.105,-707 573.105,-707 567.105,-707 561.105,-701 561.105,-695 561.105,-695 561.105,-683 561.105,-683 561.105,-677 567.105,-671 573.105,-671 573.105,-671 647.105,-671 647.105,-671 653.105,-671 659.105,-677 659.105,-683 659.105,-683 659.105,-695 659.105,-695 659.105,-701 653.105,-707 647.105,-707"/>
<text text-anchor="middle" x="610.105" y="-686.2" font-family="Cantarell" font-size="11.00" fill="#000000">label_on_sample</text>
</g>
<!-- __HAS__from_sample&#45;&gt;label_on_sample -->
<g id="edge12" class="edge">
<title>__HAS__from_sample&#45;&gt;label_on_sample</title>
<path fill="none" stroke="#c0c0c0" stroke-width="2" d="M466.1809,-436.0214C471.0891,-479.1751 489.5853,-594.2328 551.605,-662 552.3602,-662.8252 553.1457,-663.6271 553.9579,-664.4063"/>
<polygon fill="#c0c0c0" stroke="#c0c0c0" stroke-width="2" points="551.9174,-667.2573 561.8949,-670.821 556.3174,-661.8131 551.9174,-667.2573"/>
</g>
<!-- drug_info -->
<g id="node25" class="node">
<title>drug_info</title>
<path fill="none" stroke="#50d0ff" stroke-width="2" d="M629.105,-653C629.105,-653 591.105,-653 591.105,-653 585.105,-653 579.105,-647 579.105,-641 579.105,-641 579.105,-629 579.105,-629 579.105,-623 585.105,-617 591.105,-617 591.105,-617 629.105,-617 629.105,-617 635.105,-617 641.105,-623 641.105,-629 641.105,-629 641.105,-641 641.105,-641 641.105,-647 635.105,-653 629.105,-653"/>
<text text-anchor="middle" x="610.105" y="-632.2" font-family="Cantarell" font-size="11.00" fill="#000000">drug_info</text>
</g>
<!-- __HAS__from_sample&#45;&gt;drug_info -->
<g id="edge14" class="edge">
<title>__HAS__from_sample&#45;&gt;drug_info</title>
<path fill="none" stroke="#c0c0c0" stroke-width="2" d="M467.9824,-435.1049C476.2707,-470.7159 500.6688,-557.0181 551.605,-608 556.823,-613.2226 563.2388,-617.547 569.8879,-621.0891"/>
<polygon fill="#c0c0c0" stroke="#c0c0c0" stroke-width="2" points="568.4769,-624.2938 579.009,-625.4452 571.4937,-617.9772 568.4769,-624.2938"/>
</g>
<!-- hbi_info -->
<g id="node26" class="node">
<title>hbi_info</title>
<path fill="none" stroke="#50d0ff" stroke-width="2" d="M625.605,-599C625.605,-599 594.605,-599 594.605,-599 588.605,-599 582.605,-593 582.605,-587 582.605,-587 582.605,-575 582.605,-575 582.605,-569 588.605,-563 594.605,-563 594.605,-563 625.605,-563 625.605,-563 631.605,-563 637.605,-569 637.605,-575 637.605,-575 637.605,-587 637.605,-587 637.605,-593 631.605,-599 625.605,-599"/>
<text text-anchor="middle" x="610.105" y="-578.2" font-family="Cantarell" font-size="11.00" fill="#000000">hbi_info</text>
</g>
<!-- __HAS__from_sample&#45;&gt;hbi_info -->
<g id="edge15" class="edge">
<title>__HAS__from_sample&#45;&gt;hbi_info</title>
<path fill="none" stroke="#c0c0c0" stroke-width="2" d="M470.5994,-433.5099C482.445,-460.5056 511.1884,-518.8861 551.605,-554 557.9084,-559.4764 565.5098,-564.0547 573.1163,-567.7931"/>
<polygon fill="#c0c0c0" stroke="#c0c0c0" stroke-width="2" points="571.7555,-571.0188 582.3102,-571.9405 574.634,-564.638 571.7555,-571.0188"/>
</g>
<!-- sccai_info -->
<g id="node27" class="node">
<title>sccai_info</title>
<path fill="none" stroke="#50d0ff" stroke-width="2" d="M630.105,-545C630.105,-545 590.105,-545 590.105,-545 584.105,-545 578.105,-539 578.105,-533 578.105,-533 578.105,-521 578.105,-521 578.105,-515 584.105,-509 590.105,-509 590.105,-509 630.105,-509 630.105,-509 636.105,-509 642.105,-515 642.105,-521 642.105,-521 642.105,-533 642.105,-533 642.105,-539 636.105,-545 630.105,-545"/>
<text text-anchor="middle" x="610.105" y="-524.2" font-family="Cantarell" font-size="11.00" fill="#000000">sccai_info</text>
</g>
<!-- __HAS__from_sample&#45;&gt;sccai_info -->
<g id="edge16" class="edge">
<title>__HAS__from_sample&#45;&gt;sccai_info</title>
<path fill="none" stroke="#c0c0c0" stroke-width="2" d="M474.8784,-430.7047C490.2631,-447.6639 520.7538,-479.2995 551.605,-500 556.9082,-503.5583 562.7557,-506.8725 568.6409,-509.8743"/>
<polygon fill="#c0c0c0" stroke="#c0c0c0" stroke-width="2" points="567.3208,-513.1236 577.8473,-514.3246 570.3673,-506.8213 567.3208,-513.1236"/>
</g>
<!-- pucai_info -->
<g id="node28" class="node">
<title>pucai_info</title>
<path fill="none" stroke="#50d0ff" stroke-width="2" d="M630.605,-491C630.605,-491 589.605,-491 589.605,-491 583.605,-491 577.605,-485 577.605,-479 577.605,-479 577.605,-467 577.605,-467 577.605,-461 583.605,-455 589.605,-455 589.605,-455 630.605,-455 630.605,-455 636.605,-455 642.605,-461 642.605,-467 642.605,-467 642.605,-479 642.605,-479 642.605,-485 636.605,-491 630.605,-491"/>
<text text-anchor="middle" x="610.105" y="-470.2" font-family="Cantarell" font-size="11.00" fill="#000000">pucai_info</text>
</g>
<!-- __HAS__from_sample&#45;&gt;pucai_info -->
<g id="edge17" class="edge">
<title>__HAS__from_sample&#45;&gt;pucai_info</title>
<path fill="none" stroke="#c0c0c0" stroke-width="2" d="M482.4241,-425.6215C503.5386,-433.4564 539.4039,-446.765 567.7562,-457.2857"/>
<polygon fill="#c0c0c0" stroke="#c0c0c0" stroke-width="2" points="566.842,-460.6795 577.435,-460.8771 569.2773,-454.1168 566.842,-460.6795"/>
</g>
<!-- crf_date -->
<g id="node29" class="node">
<title>crf_date</title>
<path fill="none" stroke="#50d0ff" stroke-width="2" d="M626.105,-437C626.105,-437 594.105,-437 594.105,-437 588.105,-437 582.105,-431 582.105,-425 582.105,-425 582.105,-413 582.105,-413 582.105,-407 588.105,-401 594.105,-401 594.105,-401 626.105,-401 626.105,-401 632.105,-401 638.105,-407 638.105,-413 638.105,-413 638.105,-425 638.105,-425 638.105,-431 632.105,-437 626.105,-437"/>
<text text-anchor="middle" x="610.105" y="-416.2" font-family="Cantarell" font-size="11.00" fill="#000000">crf_date</text>
</g>
<!-- __HAS__from_sample&#45;&gt;crf_date -->
<g id="edge18" class="edge">
<title>__HAS__from_sample&#45;&gt;crf_date</title>
<path fill="none" stroke="#c0c0c0" stroke-width="2" d="M492.984,-419C515.4207,-419 546.9567,-419 571.6534,-419"/>
<polygon fill="#c0c0c0" stroke="#c0c0c0" stroke-width="2" points="571.7725,-422.5001 581.7725,-419 571.7724,-415.5001 571.7725,-422.5001"/>
</g>
<!-- completed_by -->
<g id="node30" class="node">
<title>completed_by</title>
<path fill="none" stroke="#50d0ff" stroke-width="2" d="M640.605,-383C640.605,-383 579.605,-383 579.605,-383 573.605,-383 567.605,-377 567.605,-371 567.605,-371 567.605,-359 567.605,-359 567.605,-353 573.605,-347 579.605,-347 579.605,-347 640.605,-347 640.605,-347 646.605,-347 652.605,-353 652.605,-359 652.605,-359 652.605,-371 652.605,-371 652.605,-377 646.605,-383 640.605,-383"/>
<text text-anchor="middle" x="610.105" y="-362.2" font-family="Cantarell" font-size="11.00" fill="#000000">completed_by</text>
</g>
<!-- __HAS__from_sample&#45;&gt;completed_by -->
<g id="edge19" class="edge">
<title>__HAS__from_sample&#45;&gt;completed_by</title>
<path fill="none" stroke="#c0c0c0" stroke-width="2" d="M482.4241,-412.3785C501.1482,-405.4306 531.4721,-394.1783 557.87,-384.3828"/>
<polygon fill="#c0c0c0" stroke="#c0c0c0" stroke-width="2" points="559.2315,-387.6109 567.3892,-380.8506 556.7962,-381.0482 559.2315,-387.6109"/>
</g>
<!-- crf_note -->
<g id="node31" class="node">
<title>crf_note</title>
<path fill="none" stroke="#50d0ff" stroke-width="2" d="M626.605,-329C626.605,-329 593.605,-329 593.605,-329 587.605,-329 581.605,-323 581.605,-317 581.605,-317 581.605,-305 581.605,-305 581.605,-299 587.605,-293 593.605,-293 593.605,-293 626.605,-293 626.605,-293 632.605,-293 638.605,-299 638.605,-305 638.605,-305 638.605,-317 638.605,-317 638.605,-323 632.605,-329 626.605,-329"/>
<text text-anchor="middle" x="610.105" y="-308.2" font-family="Cantarell" font-size="11.00" fill="#000000">crf_note</text>
</g>
<!-- __HAS__from_sample&#45;&gt;crf_note -->
<g id="edge20" class="edge">
<title>__HAS__from_sample&#45;&gt;crf_note</title>
<path fill="none" stroke="#c0c0c0" stroke-width="2" d="M474.8784,-407.2953C490.2631,-390.3361 520.7538,-358.7005 551.605,-338 557.9271,-333.758 565.0226,-329.8631 572.0335,-326.4306"/>
<polygon fill="#c0c0c0" stroke="#c0c0c0" stroke-width="2" points="573.8685,-329.4373 581.4606,-322.0474 570.9172,-323.0899 573.8685,-329.4373"/>
</g>
<!-- ibd_dx -->
<g id="node33" class="node">
<title>ibd_dx</title>
<path fill="none" stroke="#50d0ff" stroke-width="2" d="M322.0546,-1447C322.0546,-1447 292.0546,-1447 292.0546,-1447 286.0546,-1447 280.0546,-1441 280.0546,-1435 280.0546,-1435 280.0546,-1423 280.0546,-1423 280.0546,-1417 286.0546,-1411 292.0546,-1411 292.0546,-1411 322.0546,-1411 322.0546,-1411 328.0546,-1411 334.0546,-1417 334.0546,-1423 334.0546,-1423 334.0546,-1435 334.0546,-1435 334.0546,-1441 328.0546,-1447 322.0546,-1447"/>
<text text-anchor="middle" x="307.0546" y="-1426.2" font-family="Cantarell" font-size="11.00" fill="#000000">ibd_dx</text>
</g>
<!-- __HAS__from_subject&#45;&gt;ibd_dx -->
<g id="edge26" class="edge">
<title>__HAS__from_subject&#45;&gt;ibd_dx</title>
<path fill="none" stroke="#c0c0c0" stroke-width="2" d="M173.4568,-1429C200.1441,-1429 240.3896,-1429 269.733,-1429"/>
<polygon fill="#c0c0c0" stroke="#c0c0c0" stroke-width="2" points="270.0052,-1432.5001 280.0052,-1429 270.0052,-1425.5001 270.0052,-1432.5001"/>
</g>
<!-- nonibd_dx -->
<g id="node34" class="node">
<title>nonibd_dx</title>
<path fill="none" stroke="#50d0ff" stroke-width="2" d="M328.0546,-1393C328.0546,-1393 286.0546,-1393 286.0546,-1393 280.0546,-1393 274.0546,-1387 274.0546,-1381 274.0546,-1381 274.0546,-1369 274.0546,-1369 274.0546,-1363 280.0546,-1357 286.0546,-1357 286.0546,-1357 328.0546,-1357 328.0546,-1357 334.0546,-1357 340.0546,-1363 340.0546,-1369 340.0546,-1369 340.0546,-1381 340.0546,-1381 340.0546,-1387 334.0546,-1393 328.0546,-1393"/>
<text text-anchor="middle" x="307.0546" y="-1372.2" font-family="Cantarell" font-size="11.00" fill="#000000">nonibd_dx</text>
</g>
<!-- __HAS__from_subject&#45;&gt;nonibd_dx -->
<g id="edge27" class="edge">
<title>__HAS__from_subject&#45;&gt;nonibd_dx</title>
<path fill="none" stroke="#c0c0c0" stroke-width="2" d="M163.8352,-1422.8055C188.1295,-1414.6963 231.4576,-1400.2337 264.1147,-1389.333"/>
<polygon fill="#c0c0c0" stroke="#c0c0c0" stroke-width="2" points="265.4969,-1392.5616 273.8742,-1386.0754 263.2805,-1385.9217 265.4969,-1392.5616"/>
</g>
<!-- subject_kind -->
<g id="node35" class="node">
<title>subject_kind</title>
<path fill="none" stroke="#50d0ff" stroke-width="2" d="M333.5546,-1339C333.5546,-1339 280.5546,-1339 280.5546,-1339 274.5546,-1339 268.5546,-1333 268.5546,-1327 268.5546,-1327 268.5546,-1315 268.5546,-1315 268.5546,-1309 274.5546,-1303 280.5546,-1303 280.5546,-1303 333.5546,-1303 333.5546,-1303 339.5546,-1303 345.5546,-1309 345.5546,-1315 345.5546,-1315 345.5546,-1327 345.5546,-1327 345.5546,-1333 339.5546,-1339 333.5546,-1339"/>
<text text-anchor="middle" x="307.0546" y="-1318.2" font-family="Cantarell" font-size="11.00" fill="#000000">subject_kind</text>
</g>
<!-- __HAS__from_subject&#45;&gt;subject_kind -->
<g id="edge28" class="edge">
<title>__HAS__from_subject&#45;&gt;subject_kind</title>
<path fill="none" stroke="#c0c0c0" stroke-width="2" d="M155.7503,-1417.3423C171.7206,-1400.1549 203.7779,-1367.9058 236.5546,-1348 243.4835,-1343.792 251.1796,-1340.0413 258.8677,-1336.7725"/>
<polygon fill="#c0c0c0" stroke="#c0c0c0" stroke-width="2" points="260.2161,-1340.0027 268.1895,-1333.026 257.6057,-1333.5077 260.2161,-1340.0027"/>
</g>
<!-- proband_status -->
<g id="node36" class="node">
<title>proband_status</title>
<path fill="none" stroke="#50d0ff" stroke-width="2" d="M340.5546,-1285C340.5546,-1285 273.5546,-1285 273.5546,-1285 267.5546,-1285 261.5546,-1279 261.5546,-1273 261.5546,-1273 261.5546,-1261 261.5546,-1261 261.5546,-1255 267.5546,-1249 273.5546,-1249 273.5546,-1249 340.5546,-1249 340.5546,-1249 346.5546,-1249 352.5546,-1255 352.5546,-1261 352.5546,-1261 352.5546,-1273 352.5546,-1273 352.5546,-1279 346.5546,-1285 340.5546,-1285"/>
<text text-anchor="middle" x="307.0546" y="-1264.2" font-family="Cantarell" font-size="11.00" fill="#000000">proband_status</text>
</g>
<!-- __HAS__from_subject&#45;&gt;proband_status -->
<g id="edge29" class="edge">
<title>__HAS__from_subject&#45;&gt;proband_status</title>
<path fill="none" stroke="#c0c0c0" stroke-width="2" d="M151.3705,-1414.6649C163.6264,-1387.4409 193.7894,-1327.9512 236.5546,-1294 241.2235,-1290.2933 246.4589,-1287.0515 251.9121,-1284.2263"/>
<polygon fill="#c0c0c0" stroke="#c0c0c0" stroke-width="2" points="253.6645,-1287.2703 261.2334,-1279.8566 250.6933,-1280.9322 253.6645,-1287.2703"/>
</g>
<!-- gender -->
<g id="node37" class="node">
<title>gender</title>
<path fill="none" stroke="#50d0ff" stroke-width="2" d="M322.0546,-1231C322.0546,-1231 292.0546,-1231 292.0546,-1231 286.0546,-1231 280.0546,-1225 280.0546,-1219 280.0546,-1219 280.0546,-1207 280.0546,-1207 280.0546,-1201 286.0546,-1195 292.0546,-1195 292.0546,-1195 322.0546,-1195 322.0546,-1195 328.0546,-1195 334.0546,-1201 334.0546,-1207 334.0546,-1207 334.0546,-1219 334.0546,-1219 334.0546,-1225 328.0546,-1231 322.0546,-1231"/>
<text text-anchor="middle" x="307.0546" y="-1210.2" font-family="Cantarell" font-size="11.00" fill="#000000">gender</text>
</g>
<!-- __HAS__from_subject&#45;&gt;gender -->
<g id="edge30" class="edge">
<title>__HAS__from_subject&#45;&gt;gender</title>
<path fill="none" stroke="#c0c0c0" stroke-width="2" d="M148.7031,-1413.1736C157.242,-1377.3716 182.766,-1289.4418 236.5546,-1240 245.9778,-1231.3383 258.4708,-1225.3559 270.3202,-1221.2692"/>
<polygon fill="#c0c0c0" stroke="#c0c0c0" stroke-width="2" points="271.5203,-1224.5617 280.0409,-1218.2649 269.4533,-1217.8738 271.5203,-1224.5617"/>
</g>
<!-- dob -->
<g id="node38" class="node">
<title>dob</title>
<path fill="none" stroke="#50d0ff" stroke-width="2" d="M322.0546,-1717C322.0546,-1717 292.0546,-1717 292.0546,-1717 286.0546,-1717 280.0546,-1711 280.0546,-1705 280.0546,-1705 280.0546,-1693 280.0546,-1693 280.0546,-1687 286.0546,-1681 292.0546,-1681 292.0546,-1681 322.0546,-1681 322.0546,-1681 328.0546,-1681 334.0546,-1687 334.0546,-1693 334.0546,-1693 334.0546,-1705 334.0546,-1705 334.0546,-1711 328.0546,-1717 322.0546,-1717"/>
<text text-anchor="middle" x="307.0546" y="-1696.2" font-family="Cantarell" font-size="11.00" fill="#000000">dob</text>
</g>
<!-- __HAS__from_subject&#45;&gt;dob -->
<g id="edge31" class="edge">
<title>__HAS__from_subject&#45;&gt;dob</title>
<path fill="none" stroke="#c0c0c0" stroke-width="2" d="M146.9116,-1445.9681C151.9844,-1489.4963 171.2804,-1606.3049 236.5546,-1672 245.6481,-1681.1522 258.1722,-1687.258 270.1441,-1691.3072"/>
<polygon fill="#c0c0c0" stroke="#c0c0c0" stroke-width="2" points="269.3998,-1694.7376 279.9832,-1694.2464 271.4034,-1688.0304 269.3998,-1694.7376"/>
</g>
<!-- consent_history -->
<g id="node39" class="node">
<title>consent_history</title>
<path fill="none" stroke="#50d0ff" stroke-width="2" d="M341.5546,-1663C341.5546,-1663 272.5546,-1663 272.5546,-1663 266.5546,-1663 260.5546,-1657 260.5546,-1651 260.5546,-1651 260.5546,-1639 260.5546,-1639 260.5546,-1633 266.5546,-1627 272.5546,-1627 272.5546,-1627 341.5546,-1627 341.5546,-1627 347.5546,-1627 353.5546,-1633 353.5546,-1639 353.5546,-1639 353.5546,-1651 353.5546,-1651 353.5546,-1657 347.5546,-1663 341.5546,-1663"/>
<text text-anchor="middle" x="307.0546" y="-1642.2" font-family="Cantarell" font-size="11.00" fill="#000000">consent_history</text>
</g>
<!-- __HAS__from_subject&#45;&gt;consent_history -->
<g id="edge32" class="edge">
<title>__HAS__from_subject&#45;&gt;consent_history</title>
<path fill="none" stroke="#c0c0c0" stroke-width="2" d="M148.7031,-1444.8264C157.242,-1480.6284 182.766,-1568.5582 236.5546,-1618 240.9436,-1622.0343 245.9985,-1625.4873 251.3441,-1628.4383"/>
<polygon fill="#c0c0c0" stroke="#c0c0c0" stroke-width="2" points="250.0282,-1631.691 260.5486,-1632.9446 253.1062,-1625.404 250.0282,-1631.691"/>
</g>
<!-- ibd_immunodeficiency -->
<g id="node40" class="node">
<title>ibd_immunodeficiency</title>
<path fill="none" stroke="#50d0ff" stroke-width="2" d="M356.5546,-1609C356.5546,-1609 257.5546,-1609 257.5546,-1609 251.5546,-1609 245.5546,-1603 245.5546,-1597 245.5546,-1597 245.5546,-1585 245.5546,-1585 245.5546,-1579 251.5546,-1573 257.5546,-1573 257.5546,-1573 356.5546,-1573 356.5546,-1573 362.5546,-1573 368.5546,-1579 368.5546,-1585 368.5546,-1585 368.5546,-1597 368.5546,-1597 368.5546,-1603 362.5546,-1609 356.5546,-1609"/>
<text text-anchor="middle" x="307.0546" y="-1588.2" font-family="Cantarell" font-size="11.00" fill="#000000">ibd_immunodeficiency</text>
</g>
<!-- __HAS__from_subject&#45;&gt;ibd_immunodeficiency -->
<g id="edge33" class="edge">
<title>__HAS__from_subject&#45;&gt;ibd_immunodeficiency</title>
<path fill="none" stroke="#c0c0c0" stroke-width="2" d="M151.3705,-1443.3351C163.6264,-1470.5591 193.7894,-1530.0488 236.5546,-1564 238.1328,-1565.253 239.7758,-1566.4528 241.47,-1567.6014"/>
<polygon fill="#c0c0c0" stroke="#c0c0c0" stroke-width="2" points="239.9343,-1570.7623 250.3059,-1572.9259 243.5472,-1564.7667 239.9343,-1570.7623"/>
</g>
<!-- nonibd_immunodeficiency -->
<g id="node41" class="node">
<title>nonibd_immunodeficiency</title>
<path fill="none" stroke="#50d0ff" stroke-width="2" d="M365.5546,-1555C365.5546,-1555 248.5546,-1555 248.5546,-1555 242.5546,-1555 236.5546,-1549 236.5546,-1543 236.5546,-1543 236.5546,-1531 236.5546,-1531 236.5546,-1525 242.5546,-1519 248.5546,-1519 248.5546,-1519 365.5546,-1519 365.5546,-1519 371.5546,-1519 377.5546,-1525 377.5546,-1531 377.5546,-1531 377.5546,-1543 377.5546,-1543 377.5546,-1549 371.5546,-1555 365.5546,-1555"/>
<text text-anchor="middle" x="307.0546" y="-1534.2" font-family="Cantarell" font-size="11.00" fill="#000000">nonibd_immunodeficiency</text>
</g>
<!-- __HAS__from_subject&#45;&gt;nonibd_immunodeficiency -->
<g id="edge34" class="edge">
<title>__HAS__from_subject&#45;&gt;nonibd_immunodeficiency</title>
<path fill="none" stroke="#c0c0c0" stroke-width="2" d="M155.7503,-1440.6577C171.7206,-1457.8451 203.7779,-1490.0942 236.5546,-1510 239.1592,-1511.5818 241.8721,-1513.099 244.6524,-1514.5502"/>
<polygon fill="#c0c0c0" stroke="#c0c0c0" stroke-width="2" points="243.1868,-1517.7294 253.71,-1518.9592 246.2505,-1511.4354 243.1868,-1517.7294"/>
</g>
<!-- psc_status -->
<g id="node42" class="node">
<title>psc_status</title>
<path fill="none" stroke="#50d0ff" stroke-width="2" d="M329.0546,-1501C329.0546,-1501 285.0546,-1501 285.0546,-1501 279.0546,-1501 273.0546,-1495 273.0546,-1489 273.0546,-1489 273.0546,-1477 273.0546,-1477 273.0546,-1471 279.0546,-1465 285.0546,-1465 285.0546,-1465 329.0546,-1465 329.0546,-1465 335.0546,-1465 341.0546,-1471 341.0546,-1477 341.0546,-1477 341.0546,-1489 341.0546,-1489 341.0546,-1495 335.0546,-1501 329.0546,-1501"/>
<text text-anchor="middle" x="307.0546" y="-1480.2" font-family="Cantarell" font-size="11.00" fill="#000000">psc_status</text>
</g>
<!-- __HAS__from_subject&#45;&gt;psc_status -->
<g id="edge35" class="edge">
<title>__HAS__from_subject&#45;&gt;psc_status</title>
<path fill="none" stroke="#c0c0c0" stroke-width="2" d="M163.8352,-1435.1945C187.9039,-1443.2284 230.6544,-1457.4982 263.202,-1468.3623"/>
<polygon fill="#c0c0c0" stroke="#c0c0c0" stroke-width="2" points="262.3498,-1471.7676 272.9435,-1471.614 264.5661,-1465.1278 262.3498,-1471.7676"/>
</g>
<!-- __HAS__from_veoibd_profile -->
<g id="node8" class="node">
<title>__HAS__from_veoibd_profile</title>
<path fill="none" stroke="#dc112a" stroke-width="2" d="M455.2039,-971C455.2039,-971 445.8279,-965 445.8279,-965 441.1399,-962 441.1399,-956 445.8279,-953 445.8279,-953 455.2039,-947 455.2039,-947 459.8918,-944 469.2678,-944 473.9558,-947 473.9558,-947 483.3317,-953 483.3317,-953 488.0197,-956 488.0197,-962 483.3317,-965 483.3317,-965 473.9558,-971 473.9558,-971 469.2678,-974 459.8918,-974 455.2039,-971"/>
<text text-anchor="middle" x="464.5798" y="-956.2" font-family="Cantarell" font-size="11.00" fill="#000000">has</text>
</g>
<!-- symptom_onset -->
<g id="node47" class="node">
<title>symptom_onset</title>
<path fill="none" stroke="#50d0ff" stroke-width="2" d="M645.105,-815C645.105,-815 575.105,-815 575.105,-815 569.105,-815 563.105,-809 563.105,-803 563.105,-803 563.105,-791 563.105,-791 563.105,-785 569.105,-779 575.105,-779 575.105,-779 645.105,-779 645.105,-779 651.105,-779 657.105,-785 657.105,-791 657.105,-791 657.105,-803 657.105,-803 657.105,-809 651.105,-815 645.105,-815"/>
<text text-anchor="middle" x="610.105" y="-794.2" font-family="Cantarell" font-size="11.00" fill="#000000">symptom_onset</text>
</g>
<!-- __HAS__from_veoibd_profile&#45;&gt;symptom_onset -->
<g id="edge44" class="edge">
<title>__HAS__from_veoibd_profile&#45;&gt;symptom_onset</title>
<path fill="none" stroke="#c0c0c0" stroke-width="2" d="M470.5994,-944.4901C482.445,-917.4944 511.1884,-859.1139 551.605,-824 552.9112,-822.8652 554.2731,-821.7689 555.6793,-820.7107"/>
<polygon fill="#c0c0c0" stroke="#c0c0c0" stroke-width="2" points="557.7644,-823.527 564.1364,-815.0624 553.8766,-817.7059 557.7644,-823.527"/>
</g>
<!-- date_of_diagnosis -->
<g id="node48" class="node">
<title>date_of_diagnosis</title>
<path fill="none" stroke="#50d0ff" stroke-width="2" d="M650.105,-1085C650.105,-1085 570.105,-1085 570.105,-1085 564.105,-1085 558.105,-1079 558.105,-1073 558.105,-1073 558.105,-1061 558.105,-1061 558.105,-1055 564.105,-1049 570.105,-1049 570.105,-1049 650.105,-1049 650.105,-1049 656.105,-1049 662.105,-1055 662.105,-1061 662.105,-1061 662.105,-1073 662.105,-1073 662.105,-1079 656.105,-1085 650.105,-1085"/>
<text text-anchor="middle" x="610.105" y="-1064.2" font-family="Cantarell" font-size="11.00" fill="#000000">date_of_diagnosis</text>
</g>
<!-- __HAS__from_veoibd_profile&#45;&gt;date_of_diagnosis -->
<g id="edge45" class="edge">
<title>__HAS__from_veoibd_profile&#45;&gt;date_of_diagnosis</title>
<path fill="none" stroke="#c0c0c0" stroke-width="2" d="M474.8784,-970.7047C490.2631,-987.6639 520.7538,-1019.2995 551.605,-1040 553.5295,-1041.2913 555.5257,-1042.5504 557.5693,-1043.7741"/>
<polygon fill="#c0c0c0" stroke="#c0c0c0" stroke-width="2" points="556.3206,-1047.0854 566.7584,-1048.9025 559.7319,-1040.9729 556.3206,-1047.0854"/>
</g>
<!-- consanguinity_status -->
<g id="node49" class="node">
<title>consanguinity_status</title>
<path fill="none" stroke="#50d0ff" stroke-width="2" d="M656.605,-1031C656.605,-1031 563.605,-1031 563.605,-1031 557.605,-1031 551.605,-1025 551.605,-1019 551.605,-1019 551.605,-1007 551.605,-1007 551.605,-1001 557.605,-995 563.605,-995 563.605,-995 656.605,-995 656.605,-995 662.605,-995 668.605,-1001 668.605,-1007 668.605,-1007 668.605,-1019 668.605,-1019 668.605,-1025 662.605,-1031 656.605,-1031"/>
<text text-anchor="middle" x="610.105" y="-1010.2" font-family="Cantarell" font-size="11.00" fill="#000000">consanguinity_status</text>
</g>
<!-- __HAS__from_veoibd_profile&#45;&gt;consanguinity_status -->
<g id="edge46" class="edge">
<title>__HAS__from_veoibd_profile&#45;&gt;consanguinity_status</title>
<path fill="none" stroke="#c0c0c0" stroke-width="2" d="M482.4241,-965.6215C499.7873,-972.0645 527.1256,-982.2089 552.0582,-991.4606"/>
<polygon fill="#c0c0c0" stroke="#c0c0c0" stroke-width="2" points="550.8772,-994.7555 561.4702,-994.9531 553.3125,-988.1927 550.8772,-994.7555"/>
</g>
<!-- oral_perianal_kind -->
<g id="node50" class="node">
<title>oral_perianal_kind</title>
<path fill="none" stroke="#50d0ff" stroke-width="2" d="M650.105,-977C650.105,-977 570.105,-977 570.105,-977 564.105,-977 558.105,-971 558.105,-965 558.105,-965 558.105,-953 558.105,-953 558.105,-947 564.105,-941 570.105,-941 570.105,-941 650.105,-941 650.105,-941 656.105,-941 662.105,-947 662.105,-953 662.105,-953 662.105,-965 662.105,-965 662.105,-971 656.105,-977 650.105,-977"/>
<text text-anchor="middle" x="610.105" y="-956.2" font-family="Cantarell" font-size="11.00" fill="#000000">oral_perianal_kind</text>
</g>
<!-- __HAS__from_veoibd_profile&#45;&gt;oral_perianal_kind -->
<g id="edge47" class="edge">
<title>__HAS__from_veoibd_profile&#45;&gt;oral_perianal_kind</title>
<path fill="none" stroke="#c0c0c0" stroke-width="2" d="M492.984,-959C508.6195,-959 528.6741,-959 547.7535,-959"/>
<polygon fill="#c0c0c0" stroke="#c0c0c0" stroke-width="2" points="547.9148,-962.5001 557.9147,-959 547.9147,-955.5001 547.9148,-962.5001"/>
</g>
<!-- six_mo_nsaid_status -->
<g id="node51" class="node">
<title>six_mo_nsaid_status</title>
<path fill="none" stroke="#50d0ff" stroke-width="2" d="M656.105,-923C656.105,-923 564.105,-923 564.105,-923 558.105,-923 552.105,-917 552.105,-911 552.105,-911 552.105,-899 552.105,-899 552.105,-893 558.105,-887 564.105,-887 564.105,-887 656.105,-887 656.105,-887 662.105,-887 668.105,-893 668.105,-899 668.105,-899 668.105,-911 668.105,-911 668.105,-917 662.105,-923 656.105,-923"/>
<text text-anchor="middle" x="610.105" y="-902.2" font-family="Cantarell" font-size="11.00" fill="#000000">six_mo_nsaid_status</text>
</g>
<!-- __HAS__from_veoibd_profile&#45;&gt;six_mo_nsaid_status -->
<g id="edge48" class="edge">
<title>__HAS__from_veoibd_profile&#45;&gt;six_mo_nsaid_status</title>
<path fill="none" stroke="#c0c0c0" stroke-width="2" d="M482.4241,-952.3785C499.7873,-945.9355 527.1256,-935.7911 552.0582,-926.5394"/>
<polygon fill="#c0c0c0" stroke="#c0c0c0" stroke-width="2" points="553.3125,-929.8073 561.4702,-923.0469 550.8772,-923.2445 553.3125,-929.8073"/>
</g>
<!-- six_mo_nsaid_doses -->
<g id="node52" class="node">
<title>six_mo_nsaid_doses</title>
<path fill="none" stroke="#50d0ff" stroke-width="2" d="M656.105,-869C656.105,-869 564.105,-869 564.105,-869 558.105,-869 552.105,-863 552.105,-857 552.105,-857 552.105,-845 552.105,-845 552.105,-839 558.105,-833 564.105,-833 564.105,-833 656.105,-833 656.105,-833 662.105,-833 668.105,-839 668.105,-845 668.105,-845 668.105,-857 668.105,-857 668.105,-863 662.105,-869 656.105,-869"/>
<text text-anchor="middle" x="610.105" y="-848.2" font-family="Cantarell" font-size="11.00" fill="#000000">six_mo_nsaid_doses</text>
</g>
<!-- __HAS__from_veoibd_profile&#45;&gt;six_mo_nsaid_doses -->
<g id="edge49" class="edge">
<title>__HAS__from_veoibd_profile&#45;&gt;six_mo_nsaid_doses</title>
<path fill="none" stroke="#c0c0c0" stroke-width="2" d="M474.8784,-947.2953C490.2631,-930.3361 520.7538,-898.7005 551.605,-878 553.5295,-876.7087 555.5257,-875.4496 557.5693,-874.2259"/>
<polygon fill="#c0c0c0" stroke="#c0c0c0" stroke-width="2" points="559.7319,-877.0271 566.7584,-869.0975 556.3206,-870.9146 559.7319,-877.0271"/>
</g>
<!-- family -->
<g id="node32" class="node">
<title>family</title>
<path fill="none" stroke="#50d0ff" stroke-width="2" d="M322.0546,-1177C322.0546,-1177 292.0546,-1177 292.0546,-1177 286.0546,-1177 280.0546,-1171 280.0546,-1165 280.0546,-1165 280.0546,-1153 280.0546,-1153 280.0546,-1147 286.0546,-1141 292.0546,-1141 292.0546,-1141 322.0546,-1141 322.0546,-1141 328.0546,-1141 334.0546,-1147 334.0546,-1153 334.0546,-1153 334.0546,-1165 334.0546,-1165 334.0546,-1171 328.0546,-1177 322.0546,-1177"/>
<text text-anchor="middle" x="307.0546" y="-1156.2" font-family="Cantarell" font-size="11.00" fill="#000000">family</text>
</g>
<!-- __IS_PART_OF__from_subject&#45;&gt;family -->
<g id="edge22" class="edge">
<title>__IS_PART_OF__from_subject&#45;&gt;family</title>
<path fill="none" stroke="#c0c0c0" stroke-width="2" d="M200.4994,-1159C223.26,-1159 249.0453,-1159 269.549,-1159"/>
<polygon fill="#c0c0c0" stroke="#c0c0c0" stroke-width="2" points="269.7457,-1162.5001 279.7457,-1159 269.7456,-1155.5001 269.7457,-1162.5001"/>
</g>
<!-- __MAY_BE__from_fam_members -->
<g id="node10" class="node">
<title>__MAY_BE__from_fam_members</title>
<path fill="none" stroke="#dc112a" stroke-width="2" d="M739.3578,-1126.6144C739.3578,-1126.6144 715.8521,-1117.3856 715.8521,-1117.3856 710.2672,-1115.1928 710.2672,-1110.8072 715.8521,-1108.6144 715.8521,-1108.6144 739.3578,-1099.3856 739.3578,-1099.3856 744.9427,-1097.1928 756.1127,-1097.1928 761.6976,-1099.3856 761.6976,-1099.3856 785.2033,-1108.6144 785.2033,-1108.6144 790.7882,-1110.8072 790.7882,-1115.1928 785.2033,-1117.3856 785.2033,-1117.3856 761.6976,-1126.6144 761.6976,-1126.6144 756.1127,-1128.8072 744.9427,-1128.8072 739.3578,-1126.6144"/>
<text text-anchor="middle" x="750.5277" y="-1110.2" font-family="Cantarell" font-size="11.00" fill="#000000">may_be</text>
</g>
<!-- __MAY_BE__from_fam_members&#45;&gt;subject -->
<g id="edge51" class="edge">
<title>__MAY_BE__from_fam_members&#45;&gt;subject</title>
<path fill="none" stroke="#c0c0c0" stroke-width="2" d="M704.4692,-1113C647.9582,-1113 549.2224,-1113 464.5798,-1113 307.0546,-1113 307.0546,-1113 307.0546,-1113 219.9934,-1113 117.7081,-1113 64.0906,-1113"/>
<polygon fill="#c0c0c0" stroke="#c0c0c0" stroke-width="2" points="64.035,-1109.5001 54.035,-1113 64.0349,-1116.5001 64.035,-1109.5001"/>
</g>
<!-- chb_id -->
<g id="node43" class="node">
<title>chb_id</title>
<path fill="none" stroke="#50d0ff" stroke-width="2" d="M322.0546,-977C322.0546,-977 292.0546,-977 292.0546,-977 286.0546,-977 280.0546,-971 280.0546,-965 280.0546,-965 280.0546,-953 280.0546,-953 280.0546,-947 286.0546,-941 292.0546,-941 292.0546,-941 322.0546,-941 322.0546,-941 328.0546,-941 334.0546,-947 334.0546,-953 334.0546,-953 334.0546,-965 334.0546,-965 334.0546,-971 328.0546,-977 322.0546,-977"/>
<text text-anchor="middle" x="307.0546" y="-956.2" font-family="Cantarell" font-size="11.00" fill="#000000">chb_id</text>
</g>
<!-- __MAY_HAVE__from_subject&#45;&gt;chb_id -->
<g id="edge37" class="edge">
<title>__MAY_HAVE__from_subject&#45;&gt;chb_id</title>
<path fill="none" stroke="#c0c0c0" stroke-width="2" d="M172.7206,-1003.8396C199.6101,-994.8641 240.762,-981.128 270.432,-971.2244"/>
<polygon fill="#c0c0c0" stroke="#c0c0c0" stroke-width="2" points="271.6392,-974.5113 280.0166,-968.0251 269.4229,-967.8714 271.6392,-974.5113"/>
</g>
<!-- veoibd_profile -->
<g id="node44" class="node">
<title>veoibd_profile</title>
<path fill="none" stroke="#50d0ff" stroke-width="2" d="M337.5546,-1031C337.5546,-1031 276.5546,-1031 276.5546,-1031 270.5546,-1031 264.5546,-1025 264.5546,-1019 264.5546,-1019 264.5546,-1007 264.5546,-1007 264.5546,-1001 270.5546,-995 276.5546,-995 276.5546,-995 337.5546,-995 337.5546,-995 343.5546,-995 349.5546,-1001 349.5546,-1007 349.5546,-1007 349.5546,-1019 349.5546,-1019 349.5546,-1025 343.5546,-1031 337.5546,-1031"/>
<text text-anchor="middle" x="307.0546" y="-1010.2" font-family="Cantarell" font-size="11.00" fill="#000000">veoibd_profile</text>
</g>
<!-- __MAY_HAVE__from_subject&#45;&gt;veoibd_profile -->
<g id="edge38" class="edge">
<title>__MAY_HAVE__from_subject&#45;&gt;veoibd_profile</title>
<path fill="none" stroke="#c0c0c0" stroke-width="2" d="M200.4994,-1013C217.7822,-1013 236.8091,-1013 253.9433,-1013"/>
<polygon fill="#c0c0c0" stroke="#c0c0c0" stroke-width="2" points="254.3346,-1016.5001 264.3346,-1013 254.3346,-1009.5001 254.3346,-1016.5001"/>
</g>
<!-- sample -->
<g id="node18" class="node">
<title>sample</title>
<path fill="none" stroke="#50d0ff" stroke-width="2" d="M322.0546,-680C322.0546,-680 292.0546,-680 292.0546,-680 286.0546,-680 280.0546,-674 280.0546,-668 280.0546,-668 280.0546,-656 280.0546,-656 280.0546,-650 286.0546,-644 292.0546,-644 292.0546,-644 322.0546,-644 322.0546,-644 328.0546,-644 334.0546,-650 334.0546,-656 334.0546,-656 334.0546,-668 334.0546,-668 334.0546,-674 328.0546,-680 322.0546,-680"/>
<text text-anchor="middle" x="307.0546" y="-659.2" font-family="Cantarell" font-size="11.00" fill="#000000">sample</text>
</g>
<!-- __PROVIDES__from_subject&#45;&gt;sample -->
<g id="edge24" class="edge">
<title>__PROVIDES__from_subject&#45;&gt;sample</title>
<path fill="none" stroke="#c0c0c0" stroke-width="2" d="M154.2056,-917.099C180.371,-873.43 257.1414,-745.3032 290.8589,-689.0301"/>
<polygon fill="#c0c0c0" stroke="#c0c0c0" stroke-width="2" points="293.9361,-690.7039 296.0736,-680.3269 287.9315,-687.106 293.9361,-690.7039"/>
</g>
<!-- labs_info&#45;&gt;__HAS__from_labs_info -->
<g id="edge1" class="edge">
<title>labs_info&#45;&gt;__HAS__from_labs_info</title>
<path fill="none" stroke="#c0c0c0" stroke-width="2" d="M640.2292,-257C661.2393,-257 689.4514,-257 712.0835,-257"/>
<polygon fill="#c0c0c0" stroke="#c0c0c0" stroke-width="2" points="712.3657,-260.5001 722.3656,-257 712.3656,-253.5001 712.3657,-260.5001"/>
</g>
<!-- sample&#45;&gt;__HAS__from_sample -->
<g id="edge6" class="edge">
<title>sample&#45;&gt;__HAS__from_sample</title>
<path fill="none" stroke="#c0c0c0" stroke-width="2" d="M318.8946,-643.7355C347.4704,-599.6541 420.1078,-487.6029 450.6813,-440.4399"/>
<polygon fill="#c0c0c0" stroke="#c0c0c0" stroke-width="2" points="453.7069,-442.2069 456.2097,-431.9119 447.8331,-438.3992 453.7069,-442.2069"/>
</g>
<!-- family&#45;&gt;__CONSISTS_OF__from_family -->
<g id="edge39" class="edge">
<title>family&#45;&gt;__CONSISTS_OF__from_family</title>
<path fill="none" stroke="#c0c0c0" stroke-width="2" d="M334.1342,-1159C353.1459,-1159 379.3506,-1159 403.2881,-1159"/>
<polygon fill="#c0c0c0" stroke="#c0c0c0" stroke-width="2" points="403.3807,-1162.5001 413.3806,-1159 403.3806,-1155.5001 403.3807,-1162.5001"/>
</g>
<!-- family&#45;&gt;__HAS__from_family -->
<g id="edge41" class="edge">
<title>family&#45;&gt;__HAS__from_family</title>
<path fill="none" stroke="#c0c0c0" stroke-width="2" d="M334.1342,-1168.2829C362.7768,-1178.1017 407.746,-1193.5172 436.6915,-1203.4398"/>
<polygon fill="#c0c0c0" stroke="#c0c0c0" stroke-width="2" points="435.614,-1206.7703 446.2086,-1206.7023 437.884,-1200.1486 435.614,-1206.7703"/>
</g>
<!-- veoibd_profile&#45;&gt;__HAS__from_veoibd_profile -->
<g id="edge43" class="edge">
<title>veoibd_profile&#45;&gt;__HAS__from_veoibd_profile</title>
<path fill="none" stroke="#c0c0c0" stroke-width="2" d="M349.6832,-998.3868C377.2688,-988.9304 412.4043,-976.8859 436.5159,-968.6204"/>
<polygon fill="#c0c0c0" stroke="#c0c0c0" stroke-width="2" points="437.7957,-971.8817 446.1203,-965.3279 435.5257,-965.2599 437.7957,-971.8817"/>
</g>
<!-- fam_member&#45;&gt;__HAS__from_fam_member -->
<g id="edge52" class="edge">
<title>fam_member&#45;&gt;__HAS__from_fam_member</title>
<path fill="none" stroke="#c0c0c0" stroke-width="2" d="M650.3445,-1161.2925C670.5416,-1162.4431 694.8122,-1163.8258 714.4059,-1164.9421"/>
<polygon fill="#c0c0c0" stroke="#c0c0c0" stroke-width="2" points="714.2832,-1168.4407 724.4662,-1165.5153 714.6815,-1161.452 714.2832,-1168.4407"/>
</g>
<!-- fam_member&#45;&gt;__MAY_BE__from_fam_members -->
<g id="edge50" class="edge">
<title>fam_member&#45;&gt;__MAY_BE__from_fam_members</title>
<path fill="none" stroke="#c0c0c0" stroke-width="2" d="M650.3445,-1145.8182C671.0051,-1139.0502 695.9283,-1130.8858 715.7472,-1124.3935"/>
<polygon fill="#c0c0c0" stroke="#c0c0c0" stroke-width="2" points="716.8967,-1127.7 725.3102,-1121.2608 714.7175,-1121.0478 716.8967,-1127.7"/>
</g>
</g>
</svg>
